# xmcd
#
# Track frame offsets:
# 150
# 7030
# 17257
# 26551
# 38063
# 42992
# 46034
# 65680
# 76794
#
# Disc length: 1304 seconds
#
# Revision: 0
# Processed by: cddbd v1.5.2PL0 Copyright (c) Steve Scherf et al.
# Submitted via: Audion 3.0.2 (http://www.panic.com/audion/)
#
DISCID=5e051609
DTITLE=The Thick Slices - TTS Greatest Hits
DYEAR=1900
DGENRE=
TTITLE0=Jack and Jill
TTITLE1=Missing THE Train
TTITLE2=TTS 3
TTITLE3=TTS 4
TTITLE4=TTS 5
TTITLE5=TTS 5
TTITLE6=TTS 6
TTITLE7=TTS 7
TTITLE8=TTS 8
EXTD=
EXTT0=
EXTT1=
EXTT2=
EXTT3=
EXTT4=
EXTT5=
EXTT6=
EXTT7=
EXTT8=
PLAYORDER=
